<?xml version="1.0" standalone="no"?><!DOCTYPE svg PUBLIC "-//W3C//DTD SVG 1.1//EN" "http://www.w3.org/Graphics/SVG/1.1/DTD/svg11.dtd"><svg t="1494752089481" class="icon" style="" viewBox="0 0 1024 1024" version="1.1" xmlns="http://www.w3.org/2000/svg" p-id="1880" xmlns:xlink="http://www.w3.org/1999/xlink" width="200" height="200"><defs><style type="text/css"></style></defs><path d="M639.676264 352.566851c0 17.625444 14.29887 31.9573 31.972293 31.957299 17.672424 0 31.972293-14.330856 31.972293-31.957299V108.265585c151.179188 71.829206 255.775346 225.632269 255.775346 404.148737 0 247.223013-200.385093 447.641091-447.607106 447.641092-247.192026 0-447.629097-200.418079-447.629096-447.641092 0-225.428356 166.841473-411.439611 383.698504-442.537279V5.278737C195.549666 36.827212 0.219406 251.578146 0.219406 512.413323c0 282.56686 229.03481 511.585678 511.570684 511.585677 282.499889 0 511.551692-229.018817 511.551692-511.585677 0-192.691391-106.720248-360.372504-264.080785-447.579118h232.108492c17.609451 0 31.972293-14.330856 31.972293-32.00328 0-17.671424-14.362842-31.940307-31.972293-31.940307H671.649556c-3.87134 0-31.972293 0-31.972293 31.940307v319.735926h-0.000999z" p-id="1881"></path></svg>